<svg width="56" height="32" viewBox="0 0 56 32" fill="none" xmlns="http://www.w3.org/2000/svg">
<g clip-path="url(#clip0_1_7350)">
<path d="M31 16C31 24.2843 24.2843 31 16 31C7.71573 31 1 24.2843 1 16C1 7.71573 7.71573 1 16 1C24.2843 1 31 7.71573 31 16Z" fill="#F7931A" stroke="#262932" stroke-width="2"/>
<path d="M23.032 14.02C23.346 11.924 21.749 10.797 19.567 10.045L20.275 7.205L18.547 6.775L17.857 9.54C17.403 9.426 16.937 9.32 16.472 9.214L17.167 6.431L15.439 6L14.731 8.839C14.355 8.753 13.985 8.669 13.627 8.579L13.629 8.57L11.245 7.975L10.785 9.821C10.785 9.821 12.068 10.115 12.041 10.133C12.741 10.308 12.867 10.771 12.846 11.139L12.04 14.374C12.088 14.386 12.15 14.404 12.22 14.431L12.037 14.386L10.907 18.918C10.821 19.13 10.604 19.449 10.114 19.328C10.132 19.353 8.858 19.015 8.858 19.015L8 20.993L10.25 21.554C10.668 21.659 11.078 21.769 11.481 21.872L10.766 24.744L12.493 25.174L13.201 22.334C13.673 22.461 14.131 22.579 14.579 22.691L13.873 25.519L15.601 25.949L16.316 23.083C19.264 23.641 21.48 23.416 22.413 20.75C23.165 18.604 22.376 17.365 20.825 16.558C21.955 16.298 22.805 15.555 23.032 14.02ZM19.082 19.558C18.549 21.705 14.934 20.544 13.762 20.253L14.712 16.448C15.884 16.741 19.641 17.32 19.082 19.558ZM19.617 13.989C19.13 15.942 16.122 14.949 15.147 14.706L16.007 11.256C16.982 11.499 20.125 11.952 19.617 13.989Z" fill="white"/>
</g>
<g clip-path="url(#clip1_1_7350)">
<path d="M55 16C55 24.2843 48.2843 31 40 31C31.7157 31 25 24.2843 25 16C25 7.71573 31.7157 1 40 1C48.2843 1 55 7.71573 55 16Z" fill="#26A17B" stroke="#262932" stroke-width="2"/>
<path fill-rule="evenodd" clip-rule="evenodd" d="M41.622 17.564V17.562C41.512 17.57 40.945 17.604 39.68 17.604C38.67 17.604 37.959 17.574 37.709 17.562V17.565C33.821 17.394 30.919 16.717 30.919 15.907C30.919 15.098 33.821 14.421 37.709 14.247V16.891C37.963 16.909 38.691 16.952 39.697 16.952C40.904 16.952 41.509 16.902 41.622 16.892V14.249C45.502 14.422 48.397 15.099 48.397 15.907C48.397 16.717 45.502 17.392 41.622 17.564ZM41.622 13.974V11.608H47.036V8H32.295V11.608H37.709V13.973C33.309 14.175 30 15.047 30 16.091C30 17.135 33.309 18.006 37.709 18.209V25.791H41.622V18.207C46.015 18.005 49.316 17.134 49.316 16.091C49.316 15.048 46.015 14.177 41.622 13.974Z" fill="white"/>
</g>
<defs>
<clipPath id="clip0_1_7350">
<rect width="32" height="32" fill="white"/>
</clipPath>
<clipPath id="clip1_1_7350">
<rect width="32" height="32" fill="white" transform="translate(24)"/>
</clipPath>
</defs>
</svg>
