<svg width="32" height="32" viewBox="0 0 32 32" fill="none" xmlns="http://www.w3.org/2000/svg">
<g id="Icon/Solid/menu-alt-1">
<g id="Icon">
<path fill-rule="evenodd" clip-rule="evenodd" d="M4.79999 7.9999C4.79999 7.11625 5.51633 6.3999 6.39999 6.3999H25.6C26.4836 6.3999 27.2 7.11625 27.2 7.9999C27.2 8.88356 26.4836 9.5999 25.6 9.5999H6.39999C5.51633 9.5999 4.79999 8.88356 4.79999 7.9999Z" fill="#8D98AF"/>
<path fill-rule="evenodd" clip-rule="evenodd" d="M4.79999 15.9999C4.79999 15.1162 5.51633 14.3999 6.39999 14.3999H16C16.8836 14.3999 17.6 15.1162 17.6 15.9999C17.6 16.8836 16.8836 17.5999 16 17.5999H6.39999C5.51633 17.5999 4.79999 16.8836 4.79999 15.9999Z" fill="#8D98AF"/>
<path fill-rule="evenodd" clip-rule="evenodd" d="M4.79999 23.9999C4.79999 23.1162 5.51633 22.3999 6.39999 22.3999H25.6C26.4836 22.3999 27.2 23.1162 27.2 23.9999C27.2 24.8836 26.4836 25.5999 25.6 25.5999H6.39999C5.51633 25.5999 4.79999 24.8836 4.79999 23.9999Z" fill="#8D98AF"/>
</g>
</g>
</svg>
