<svg width="12" height="12" viewBox="0 0 12 12" fill="none" xmlns="http://www.w3.org/2000/svg">
<g id="u:angle-down">
<path id="Vector" d="M8.49997 4.58497C8.40629 4.49185 8.27957 4.43958 8.14747 4.43958C8.01538 4.43958 7.88866 4.49185 7.79497 4.58497L5.99997 6.35497L4.22997 4.58497C4.13629 4.49185 4.00957 4.43958 3.87747 4.43958C3.74538 4.43958 3.61866 4.49185 3.52497 4.58497C3.47811 4.63145 3.44091 4.68675 3.41553 4.74768C3.39014 4.80861 3.37708 4.87397 3.37708 4.93997C3.37708 5.00598 3.39014 5.07133 3.41553 5.13226C3.44091 5.19319 3.47811 5.24849 3.52497 5.29497L5.64497 7.41497C5.69146 7.46184 5.74676 7.49903 5.80769 7.52442C5.86862 7.5498 5.93397 7.56287 5.99997 7.56287C6.06598 7.56287 6.13133 7.5498 6.19226 7.52442C6.25319 7.49903 6.30849 7.46184 6.35497 7.41497L8.49997 5.29497C8.54684 5.24849 8.58404 5.19319 8.60942 5.13226C8.6348 5.07133 8.64787 5.00598 8.64787 4.93997C8.64787 4.87397 8.6348 4.80861 8.60942 4.74768C8.58404 4.68675 8.54684 4.63145 8.49997 4.58497Z" fill="#A7B1BC"/>
</g>
</svg>
